<svg width="32" height="37" viewBox="0 0 32 37" fill="none" xmlns="http://www.w3.org/2000/svg">
<path d="M5.75085 28.5439L6.1105 29.4001C6.36418 29.2961 6.62837 29.2191 6.89859 29.1706L6.73095 28.2584C6.39491 28.3188 6.06635 28.4145 5.75085 28.5439Z" fill="url(#paint0_linear_24_12)"/>
<path d="M3.28833 30.8437L4.13208 31.2476C4.42409 30.6522 4.86828 30.1425 5.42073 29.7689L4.89163 29.0039C4.20428 29.4688 3.65162 30.103 3.28833 30.8437Z" fill="url(#paint1_linear_24_12)"/>
<path d="M29.0625 30.5828C29.063 29.785 28.7655 29.015 28.2268 28.4206L27.5283 29.0386C27.8054 29.3442 27.9952 29.7174 28.0781 30.1195H24.8437C24.7666 30.1195 24.6906 30.1384 24.6226 30.1744C24.5545 30.2103 24.4966 30.2624 24.4537 30.3258L22.7179 32.8994H21.5625V31.5095C21.5635 30.6496 21.9095 29.8253 22.5247 29.2173C23.1398 28.6093 23.9738 28.2673 24.8437 28.2663H25.7812C26.2422 28.2655 26.6931 28.3998 27.0769 28.6521L27.596 27.8805C27.1912 27.6142 26.7313 27.4408 26.25 27.3728V25.9498C26.25 25.8269 26.2006 25.709 26.1127 25.6222C26.0248 25.5353 25.9056 25.4865 25.7812 25.4865C25.2841 25.4859 24.8076 25.2905 24.456 24.943C24.1045 24.5956 23.9068 24.1246 23.9062 23.6332V21.78H25.3125C25.4368 21.78 25.556 21.7312 25.644 21.6443C25.7319 21.5574 25.7812 21.4396 25.7812 21.3167V18.0735C25.7812 17.9506 25.7319 17.8328 25.644 17.7459C25.556 17.659 25.4368 17.6102 25.3125 17.6102H24.4857C24.2899 17.6105 24.0949 17.6371 23.9062 17.6891V17.1469C23.9063 17.0417 23.8701 16.9395 23.8035 16.8573L22.2698 14.9624C22.4708 14.6274 22.543 14.2322 22.4734 13.8489C22.4038 13.4657 22.197 13.1199 21.8907 12.8749C21.5845 12.63 21.1993 12.5021 20.8055 12.5147C20.4118 12.5273 20.0357 12.6795 19.7461 12.9436C19.4566 13.2076 19.2728 13.5658 19.2284 13.9528C19.184 14.3397 19.282 14.7295 19.5044 15.0509C19.7269 15.3723 20.0589 15.6039 20.4398 15.7033C20.8207 15.8027 21.2251 15.7633 21.5791 15.5923L22.9687 17.3094V17.894L20.908 17.2151C20.773 17.1691 20.6311 17.146 20.4883 17.1469H16.6219L14.3965 14.5807C14.5827 14.4528 14.7348 14.2824 14.8399 14.0838C14.945 13.8853 14.9999 13.6645 15 13.4404V13.2635L15.6784 12.9282C15.7378 12.8988 15.7903 12.8573 15.8322 12.8063C15.8742 12.7554 15.9047 12.6962 15.9218 12.6327C15.9388 12.5692 15.942 12.5029 15.9312 12.4381C15.9203 12.3732 15.8956 12.3115 15.8587 12.2568L15.0888 11.1153C15.1957 11.0949 15.2921 11.0384 15.3614 10.9554C15.4308 10.8724 15.4687 10.7682 15.4687 10.6606C15.4679 9.92358 15.1713 9.21701 14.644 8.69587C14.1168 8.17473 13.4019 7.88158 12.6562 7.88074C11.7735 7.88074 10.9562 8.13133 10.3482 8.79531C10.0848 9.08344 9.88532 9.42284 9.76248 9.79171C9.63965 10.1606 9.59622 10.5507 9.63498 10.9372L9.73529 11.9282C9.77749 12.3555 9.98412 12.7504 10.3125 13.0315V21.78C10.3122 22.1055 10.3993 22.4252 10.5647 22.7066H9.84375C9.68404 22.7065 9.52551 22.7335 9.375 22.7863V16.6836C9.37458 16.3151 9.22629 15.9618 8.96266 15.7012C8.69902 15.4407 8.34158 15.2941 7.96875 15.2937H2.34375C1.97092 15.2941 1.61348 15.4407 1.34984 15.7012C1.08621 15.9618 0.937919 16.3151 0.9375 16.6836V19.0001H1.875V18.0735H8.4375V22.7066H1.875V19.9268H0.9375V23.7098C0.937396 23.9269 1.01442 24.137 1.15511 24.3037C1.29581 24.4703 1.49125 24.5828 1.7073 24.6215L6.09375 25.4098V26.497C5.69633 26.588 5.30824 26.715 4.93441 26.8764H2.34375C2.21943 26.8764 2.1002 26.9252 2.01229 27.0121C1.92439 27.099 1.875 27.2168 1.875 27.3397V29.5388C1.26253 30.5553 0.938666 31.7163 0.9375 32.8994C0.9375 33.0223 0.986886 33.1401 1.07479 33.227C1.1627 33.3139 1.28193 33.3627 1.40625 33.3627H3.55494C3.83507 34.0471 4.31562 34.6332 4.93497 35.046C5.55433 35.4587 6.28428 35.6792 7.03125 35.6792C7.77822 35.6792 8.50817 35.4587 9.12753 35.046C9.74688 34.6332 10.2274 34.0471 10.5076 33.3627H18.3891C18.7156 33.3625 19.0385 33.295 19.3371 33.1645C19.6358 33.0339 19.9036 32.8433 20.1234 32.6046L20.625 32.0591V33.3627C20.625 33.4856 20.6744 33.6034 20.7623 33.6903C20.8502 33.7772 20.9694 33.826 21.0937 33.826H22.065C22.4778 34.5326 23.1149 35.0848 23.8775 35.397C24.6402 35.7092 25.4857 35.7639 26.2831 35.5528C27.0804 35.3416 27.785 34.8763 28.2875 34.229C28.7901 33.5817 29.0625 32.7887 29.0625 31.9728C29.0629 31.6179 29.0114 31.2649 28.9098 30.9245C28.9579 30.8812 28.9964 30.8285 29.0227 30.7696C29.049 30.7108 29.0625 30.6472 29.0625 30.5828ZM20.1562 14.1354C20.1562 13.9979 20.1975 13.8636 20.2747 13.7493C20.352 13.635 20.4618 13.5459 20.5903 13.4933C20.7188 13.4407 20.8602 13.427 20.9965 13.4538C21.1329 13.4806 21.2582 13.5468 21.3566 13.644C21.4549 13.7412 21.5219 13.865 21.549 13.9998C21.5761 14.1346 21.5622 14.2744 21.509 14.4014C21.4558 14.5283 21.3656 14.6369 21.25 14.7132C21.1344 14.7896 20.9984 14.8304 20.8594 14.8304C20.673 14.8302 20.4942 14.7569 20.3624 14.6266C20.2306 14.4963 20.1565 14.3197 20.1562 14.1354ZM13.4502 30.5828C12.9911 30.5823 12.551 30.4018 12.2264 30.081C11.9018 29.7602 11.7193 29.3252 11.7187 28.8714C11.7187 28.4166 11.8351 27.9912 12.1418 27.6412C12.4151 27.3301 12.7925 27.1266 13.2051 27.0678C13.7031 26.9976 14.1589 26.7521 14.4886 26.3765C14.8183 26.0009 14.9999 25.5204 15 25.0231C15.0001 24.9623 14.988 24.902 14.9644 24.8457C14.9408 24.7895 14.9062 24.7384 14.8626 24.6954C14.9423 24.5308 14.9883 24.3522 14.998 24.1699C15.0078 23.9876 14.9811 23.8053 14.9194 23.6332H16.1925L14.1355 28.9192C14.0858 29.0465 14.061 29.182 14.0625 29.3184V30.5828H13.4502ZM15 29.6562H17.3437C17.4443 29.6563 17.5421 29.6884 17.6228 29.7476C17.7035 29.8068 17.7628 29.8902 17.792 29.9853C17.8211 30.0804 17.8185 30.1822 17.7846 30.2757C17.7507 30.3693 17.6873 30.4496 17.6037 30.5048C17.4859 30.5558 17.3587 30.5824 17.2301 30.5828H15V29.6562ZM18.6376 29.5752C18.5444 29.3596 18.3976 29.1707 18.211 29.0261C18.0243 28.8814 17.8037 28.7856 17.5697 28.7476L19.511 24.1282C19.6835 23.7177 19.7508 23.2714 19.707 22.8289C19.6633 22.3865 19.5097 21.9616 19.26 21.5919C19.0103 21.2221 18.6722 20.919 18.2755 20.7094C17.8789 20.4997 17.4361 20.39 16.9863 20.3901H15V19.6554L15.1373 19.7911C15.1808 19.8341 15.2325 19.8682 15.2894 19.8915C15.3462 19.9148 15.4072 19.9268 15.4687 19.9268H20.2369C20.1618 20.1364 20.1387 20.3608 20.1695 20.581C20.2004 20.8013 20.2843 21.0111 20.4142 21.1927C20.5441 21.3742 20.7161 21.5224 20.916 21.6246C21.1158 21.7268 21.3375 21.7801 21.5625 21.78H21.5638C21.2582 22.1804 21.0932 22.6684 21.0937 23.1699V26.764C21.093 27.0096 20.9944 27.2451 20.8191 27.4192L18.6376 29.5752ZM21.5625 20.8534C21.4698 20.8534 21.3792 20.8262 21.3021 20.7753C21.225 20.7244 21.1649 20.652 21.1294 20.5674C21.094 20.4827 21.0847 20.3895 21.1028 20.2997C21.1208 20.2098 21.1655 20.1272 21.231 20.0625C21.2966 19.9977 21.3801 19.9535 21.4711 19.9357C21.562 19.9178 21.6562 19.927 21.7419 19.962C21.8275 19.9971 21.9007 20.0565 21.9522 20.1327C22.0038 20.2089 22.0312 20.2984 22.0312 20.3901C22.0311 20.5129 21.9817 20.6307 21.8938 20.7175C21.8059 20.8044 21.6868 20.8532 21.5625 20.8534ZM24.8437 18.5368V20.8534H23.9062V18.6811C24.0845 18.5867 24.2835 18.5372 24.4857 18.5368H24.8437ZM22.9687 20.3901C22.9688 20.1677 22.9149 19.9485 22.8115 19.751C22.7081 19.5535 22.5582 19.3834 22.3745 19.2551C22.1908 19.1267 21.9786 19.0438 21.7557 19.0133C21.5329 18.9828 21.3058 19.0056 21.0937 19.0798V18.2531L22.9687 18.8708V20.3901ZM16.4062 18.0735H20.1562V19.0001H15.6629L12.9877 16.356L12.3248 17.0112L14.0625 18.7287V20.3901H11.25V14.8304H13.3781L16.0504 17.9118C16.0944 17.9625 16.149 18.0032 16.2104 18.0312C16.2718 18.0591 16.3386 18.0735 16.4062 18.0735ZM11.0433 9.41707C11.4718 8.94907 12.0405 8.80735 12.6562 8.80735C13.0718 8.80788 13.4755 8.9446 13.804 9.19611C14.1326 9.44762 14.3675 9.79972 14.472 10.1973H12.6562C12.5319 10.1973 12.4127 10.2461 12.3248 10.333C12.2369 10.4199 12.1875 10.5377 12.1875 10.6606V11.7609C12.1868 11.9536 12.1114 12.1387 11.9768 12.2781C11.8422 12.4175 11.6586 12.5005 11.4639 12.5102C11.2692 12.5198 11.0782 12.4553 10.9302 12.33C10.7821 12.2046 10.6884 12.0279 10.6682 11.8362L10.5679 10.8452C10.5404 10.5875 10.5686 10.3269 10.6505 10.0807C10.7325 9.83452 10.8664 9.60832 11.0433 9.41707ZM11.4258 13.4404C11.8763 13.44 12.3082 13.2629 12.6268 12.948C12.9454 12.6332 13.1245 12.2062 13.125 11.7609V11.1239H14.0625C14.0625 11.2154 14.0899 11.3048 14.1412 11.3809L14.7842 12.3343L14.3213 12.5629C14.2435 12.6014 14.1781 12.6606 14.1324 12.7337C14.0867 12.8069 14.0625 12.8912 14.0625 12.9771V13.4404C14.0624 13.5633 14.0129 13.681 13.9251 13.7679C13.8372 13.8548 13.718 13.9036 13.5937 13.9037H11.25V13.4313C11.3084 13.4373 11.3671 13.4404 11.4258 13.4404ZM11.25 21.78V21.3167H16.9863C17.2819 21.3167 17.5728 21.3888 17.8334 21.5265C18.094 21.6643 18.3162 21.8635 18.4803 22.1064C18.6443 22.3494 18.7452 22.6286 18.7739 22.9193C18.8027 23.21 18.7584 23.5033 18.6451 23.773L16.5621 28.7296H15.2137L17.3125 23.3362C17.3398 23.2661 17.3494 23.1904 17.3405 23.1157C17.3316 23.041 17.3045 22.9696 17.2614 22.9076C17.2183 22.8456 17.1607 22.7949 17.0933 22.7599C17.026 22.7249 16.9511 22.7066 16.875 22.7066H12.1875C11.9389 22.7063 11.7007 22.6086 11.5249 22.4349C11.3492 22.2612 11.2503 22.0257 11.25 21.78ZM9.84375 23.6332H13.5937C13.7181 23.6332 13.8373 23.682 13.9252 23.7689C14.0131 23.8558 14.0625 23.9737 14.0625 24.0965C14.0625 24.2194 14.0131 24.3373 13.9252 24.4241C13.8373 24.511 13.7181 24.5598 13.5937 24.5598H9.84375C9.71943 24.5598 9.6002 24.511 9.51229 24.4241C9.42439 24.3373 9.375 24.2194 9.375 24.0965C9.375 23.9737 9.42439 23.8558 9.51229 23.7689C9.6002 23.682 9.71943 23.6332 9.84375 23.6332ZM1.875 17.1469V16.6836C1.87514 16.5608 1.92457 16.443 2.01245 16.3561C2.10033 16.2693 2.21947 16.2204 2.34375 16.2203H7.96875C8.09303 16.2204 8.21217 16.2693 8.30005 16.3561C8.38793 16.443 8.43736 16.5608 8.4375 16.6836V17.1469H1.875ZM1.875 23.6332H8.4375V24.5598H6.60475L1.875 23.7098V23.6332ZM3.39199 27.803C3.18852 27.9663 2.99502 28.1413 2.8125 28.3272V27.803H3.39199ZM7.03125 34.7526C6.53808 34.7504 6.05404 34.6211 5.62697 34.3773C5.1999 34.1335 4.8446 33.7838 4.59621 33.3627H5.79223C6.13429 33.6612 6.57491 33.826 7.03125 33.826C7.48759 33.826 7.92821 33.6612 8.27027 33.3627H9.46629C9.2179 33.7838 8.8626 34.1335 8.43553 34.3773C8.00846 34.6211 7.52441 34.7504 7.03125 34.7526ZM19.4297 31.9815C19.2978 32.1246 19.1371 32.239 18.9579 32.3173C18.7787 32.3955 18.585 32.436 18.3891 32.4361H1.89439C1.9952 31.2265 2.48787 30.0813 3.29929 29.1704C4.11071 28.2594 5.19764 27.6314 6.39879 27.3793C6.51996 27.3533 6.64358 27.34 6.76758 27.3397H9.84375V26.4131H7.03125V25.4865H13.9629C13.8835 25.6626 13.7601 25.816 13.6043 25.9322C13.4485 26.0484 13.2655 26.1236 13.0723 26.1508C12.4364 26.2412 11.8547 26.5548 11.4334 27.0341C10.9798 27.5504 10.7812 28.1962 10.7812 28.8715C10.7808 29.4993 11.008 30.1064 11.4216 30.5828H7.5V31.5095H17.2301C17.7266 31.5058 18.2022 31.3111 18.5559 30.9666L21.482 28.0744C21.8325 27.7261 22.0298 27.2552 22.0312 26.764V23.1699C22.0316 22.8826 22.1219 22.6023 22.2897 22.3677C22.4576 22.1331 22.6948 21.9555 22.9687 21.8594V23.6332C22.9696 24.29 23.2053 24.9253 23.6342 25.4269C24.063 25.9285 24.6575 26.2641 25.3125 26.3744V27.3397C25.0215 27.3397 24.7237 27.3223 24.4344 27.3597C23.5575 27.4456 22.7297 27.8003 22.0667 28.374C21.4037 28.9478 20.9387 29.7119 20.7367 30.5597L19.4297 31.9815ZM25.0946 31.0462H25.1184L25.6842 31.6054C25.7825 31.703 25.8378 31.835 25.8381 31.9728C25.8381 32.0755 25.8073 32.176 25.7495 32.2614C25.6918 32.3468 25.6097 32.4134 25.5136 32.4527C25.4176 32.4921 25.3119 32.5023 25.21 32.4823C25.108 32.4623 25.0143 32.4128 24.9408 32.3401L24.5094 31.9138L25.0946 31.0462ZM25.3125 34.7526C24.9063 34.7514 24.5052 34.6636 24.1364 34.4954C23.7676 34.3272 23.4398 34.0825 23.1753 33.7778C23.2495 33.7421 23.3128 33.6875 23.3587 33.6197L23.7652 33.0174C23.9909 33.3446 24.3167 33.5917 24.6949 33.7224C25.0731 33.8531 25.4837 33.8606 25.8665 33.7437C26.2493 33.6269 26.5841 33.3919 26.8219 33.0731C27.0596 32.7544 27.1878 32.3688 27.1875 31.9728C27.1882 31.6982 27.1263 31.4271 27.0065 31.1794C26.9846 31.1338 26.9606 31.0896 26.9352 31.0462H27.9647C28.1144 31.4655 28.1601 31.9142 28.0981 32.3546C28.0361 32.795 27.8682 33.2143 27.6084 33.5773C27.3487 33.9404 27.0046 34.2366 26.6051 34.4411C26.2056 34.6455 25.7624 34.7524 25.3125 34.7526Z" fill="url(#paint2_linear_24_12)"/>
<path d="M3.75 18.9996H2.8125V21.7795H3.75V18.9996Z" fill="url(#paint3_linear_24_12)"/>
<ellipse opacity="0.15" cx="19.5" cy="12.5717" rx="12.5" ry="12.5717" fill="url(#paint4_linear_24_12)"/>
<defs>
<linearGradient id="paint0_linear_24_12" x1="5.75085" y1="28.7912" x2="6.87108" y2="28.7962" gradientUnits="userSpaceOnUse">
<stop stop-color="#47C2FF"/>
<stop offset="1" stop-color="#1CB4FF" stop-opacity="0.71"/>
</linearGradient>
<linearGradient id="paint1_linear_24_12" x1="3.28833" y1="30.051" x2="5.36963" y2="30.0598" gradientUnits="userSpaceOnUse">
<stop stop-color="#47C2FF"/>
<stop offset="1" stop-color="#1CB4FF" stop-opacity="0.71"/>
</linearGradient>
<linearGradient id="paint2_linear_24_12" x1="0.9375" y1="20.8533" x2="28.3884" y2="20.9773" gradientUnits="userSpaceOnUse">
<stop stop-color="#47C2FF"/>
<stop offset="1" stop-color="#1CB4FF" stop-opacity="0.71"/>
</linearGradient>
<linearGradient id="paint3_linear_24_12" x1="2.8125" y1="20.2969" x2="3.72755" y2="20.2983" gradientUnits="userSpaceOnUse">
<stop stop-color="#47C2FF"/>
<stop offset="1" stop-color="#1CB4FF" stop-opacity="0.71"/>
</linearGradient>
<linearGradient id="paint4_linear_24_12" x1="7" y1="11.7335" x2="31.4008" y2="11.8418" gradientUnits="userSpaceOnUse">
<stop stop-color="#47C2FF"/>
<stop offset="1" stop-color="#63CBFE"/>
</linearGradient>
</defs>
</svg>
